<svg width="77" height="73" viewBox="0 0 77 73" fill="none" xmlns="http://www.w3.org/2000/svg">
<path d="M37.0892 0C36.5356 0 36.0868 0.428083 36.0868 0.956151V6.69306C36.0868 7.22468 36.5359 7.64921 37.0892 7.64921H39.0941C39.6477 7.64921 40.0965 7.22112 40.0965 6.69306V0.956151C40.0965 0.428083 39.6477 0 39.0941 0H37.0892ZM63.5984 9.68103C63.5643 9.68186 63.5303 9.68436 63.4965 9.68848C63.2711 9.71365 63.0612 9.81111 62.9014 9.96487L58.6489 14.021C58.2548 14.397 58.2577 14.9999 58.6489 15.3731L60.0664 16.7252C60.4579 17.0985 61.0924 17.0985 61.4839 16.7252L65.7363 12.669C66.1277 12.2956 66.1277 11.6903 65.7363 11.3169L64.3188 9.96488C64.1287 9.78142 63.8688 9.67905 63.5984 9.68103ZM38.0917 15.2984C25.9235 15.2984 16.0386 24.7272 16.0386 36.3337C16.0386 47.9403 25.9235 57.369 38.0917 57.369C50.2598 57.369 60.1448 47.9403 60.1447 36.3337C60.1447 24.7272 50.2598 15.2984 38.0917 15.2984ZM37.6923 19.3621H37.7003C37.8125 19.361 37.9248 19.361 38.037 19.3621H38.0607C34.3076 22.0364 32.0938 26.2403 32.0854 30.7089C32.0781 38.5526 38.7416 44.9153 46.9649 44.9167C49.6283 44.9094 52.2408 44.2208 54.53 42.9222C49.0904 55.4257 31.2727 57.1732 23.2791 45.9879C15.2852 34.8027 23.5026 19.6217 37.6923 19.3621ZM1.00241 34.4214C0.448795 34.4214 0 34.8495 0 35.3776V37.2899C0 37.8215 0.449081 38.246 1.00241 38.246H7.01688C7.5705 38.246 8.0193 37.8179 8.0193 37.2899V35.3776C8.0193 34.8495 7.5705 34.4214 7.01688 34.4214H1.00241ZM69.1664 34.4214C68.6128 34.4214 68.164 34.8495 68.164 35.3776V37.2899C68.164 37.8215 68.6131 38.246 69.1664 38.246H75.1809C75.7345 38.246 76.1833 37.8179 76.1833 37.2899V35.3776C76.1833 34.8495 75.7345 34.4214 75.1809 34.4214H69.1664ZM15.3964 55.6584C15.1341 55.6623 14.8839 55.7643 14.6994 55.9423L10.447 59.9985C10.0529 60.3744 10.0557 60.9773 10.447 61.3505L11.8645 62.7026C12.2559 63.0759 12.8905 63.0759 13.282 62.7026L17.5344 58.6464C17.9257 58.273 17.9257 57.6677 17.5344 57.2943L16.1169 55.9423C15.9267 55.7588 15.6669 55.6564 15.3964 55.6584ZM60.7556 55.6584C60.496 55.6642 60.2489 55.7661 60.0664 55.9423L58.6489 57.2944C58.2548 57.6703 58.2577 58.2732 58.6489 58.6464L62.9014 62.7026C63.2928 63.0759 63.9274 63.0759 64.3188 62.7026L65.7363 61.3505C66.1277 60.9771 66.1277 60.3719 65.7363 59.9985L61.4839 55.9423C61.2918 55.757 61.0288 55.6544 60.7556 55.6584ZM37.0892 65.0182C36.5356 65.0182 36.0868 65.4463 36.0868 65.9744V71.7113C36.0868 72.2429 36.5359 72.6675 37.0892 72.6675H39.0941C39.6477 72.6675 40.0965 72.2394 40.0965 71.7113V65.9744C40.0965 65.4463 39.6477 65.0182 39.0941 65.0182H37.0892Z" fill="#0F0F0F"/>
<path d="M14.1024 9.69833C13.7125 9.31172 13.0839 9.31172 12.694 9.69833L10.7994 11.5773C10.405 11.9684 10.405 12.6062 10.7994 12.9973L14.1313 16.3017C14.5212 16.6883 15.1498 16.6883 15.5397 16.3017L17.4343 14.4227C17.8287 14.0316 17.8287 13.3938 17.4343 13.0027L14.1024 9.69833Z" fill="#0F0F0F"/>
</svg>
